PathFileType	4	(X/Y/Z)	D:\TRACE\spotREDO_2-26-24\spot_justBody_Motion_1_4-platform.trc
DataRate	CameraRate	NumFrames	NumMarkers	Units	OrigDataRate	OrigDataStartFrame	OrigNumFrames
100.00	100.00	      61	5	mm	100.00	4376	      7000
Frame#	Time	Left_Front			Right_Front			Left_Aft			Right_Aft			Post			
		X1	Y1	Z1	X2	Y2	Z2	X3	Y3	Z3	X4	Y4	Z4	X5	Y5	Z5	

4376	43.750	-690.80945	1.16122	-574.24536	723.70306	9.51150	-489.80328	-762.07764	-0.48910	644.74890	808.15051	6.73320	648.14758	18.61844	632.13721	-975.60919	
4377	43.760	-691.86359	1.57577	-574.20972	723.14465	9.68062	-489.54117	-762.81647	-0.91789	644.93585	807.11438	6.25257	648.22638	17.63207	632.81555	-975.09833	
4378	43.770	-692.87128	2.32697	-573.90521	721.83185	10.14517	-489.48956	-763.86304	-1.37706	645.05408	806.48566	6.03056	648.36200	16.56236	633.49823	-974.35596	
4379	43.780	-693.90137	2.56755	-573.78290	720.91913	10.43242	-489.38885	-764.84906	-1.69661	645.25073	805.25098	5.67991	648.38428	15.57596	633.94391	-973.79456	
4380	43.790	-694.68036	2.86248	-573.69110	720.32202	10.62969	-489.37650	-765.78949	-2.06926	645.42865	804.50903	5.02550	648.16473	14.79371	634.62250	-972.93457	
4381	43.800	-695.51001	3.17028	-573.76428	718.90283	11.19630	-489.37833	-766.72400	-2.47663	645.34814	803.54456	4.78150	648.41290	13.93982	635.25677	-972.31482	
4382	43.810	-696.64636	3.64719	-573.70026	718.05573	11.38436	-489.17886	-767.77106	-2.96165	645.31903	802.88062	4.18980	648.75616	13.38863	635.78992	-971.62927	
4383	43.820	-697.51306	4.13263	-573.56696	717.15088	11.86921	-489.17413	-768.71240	-3.20963	645.52277	801.58923	3.87731	648.81305	11.91977	636.68304	-971.63641	
4384	43.830	-698.66266	4.26578	-573.39197	716.19739	12.12719	-488.99023	-769.63916	-3.68641	645.64331	800.58496	3.65482	648.71790	10.98700	637.18494	-971.18506	
4385	43.840	-699.40222	4.63211	-573.41907	715.34479	12.40970	-488.86511	-770.68427	-4.04179	645.80475	799.55042	3.38778	649.04218	10.05779	637.76221	-970.88184	
4386	43.850	-700.59973	5.12557	-573.26514	714.14258	12.90455	-488.79150	-771.67047	-4.43137	645.90540	798.36938	2.82079	649.09955	9.19769	638.33997	-970.63300	
4387	43.860	-701.48413	5.45768	-573.25488	713.49292	13.07901	-488.57822	-772.52234	-4.85729	645.91199	797.46930	2.51691	649.17865	8.15970	638.83081	-970.23511	
4388	43.870	-702.36853	5.82359	-573.09802	712.23389	13.48485	-488.59796	-773.48151	-5.35143	646.00909	796.75732	2.32512	649.40002	7.97229	639.39514	-969.45898	
4389	43.880	-703.30145	6.06698	-572.90057	711.24249	13.65228	-488.47809	-774.48175	-5.57704	646.03979	795.62958	1.60702	649.29382	6.91160	640.04681	-968.92957	
4390	43.890	-704.41724	6.53675	-572.81415	710.53638	13.80890	-488.23663	-775.49786	-5.88030	646.30328	794.60040	1.14651	649.49438	5.41559	640.59998	-968.58417	
4391	43.900	-705.41107	6.99370	-572.83807	709.16101	14.16721	-488.29663	-776.46069	-6.11981	646.33337	793.85938	1.04076	649.54816	4.76023	641.12439	-968.18127	
4392	43.910	-706.17010	7.24334	-572.65778	708.35065	14.30447	-488.16641	-777.51678	-6.06508	646.27838	792.78052	0.56540	649.55701	3.76086	641.90295	-967.43927	
4393	43.920	-707.44574	7.52343	-572.65265	707.51880	14.47982	-487.97879	-778.38660	-7.04451	646.51855	791.67029	0.08686	649.66241	2.98023	642.45496	-966.76160	
4394	43.930	-708.12445	7.88232	-572.46606	706.38348	15.03194	-488.03659	-779.49249	-7.38199	646.42139	790.84558	-0.32827	649.76416	2.06100	643.14539	-966.24506	
4395	43.940	-709.28937	8.40476	-572.41815	705.58875	15.32304	-487.83618	-780.38849	-7.90177	646.53906	789.82959	-0.76316	649.81677	0.93500	643.90295	-965.86121	
4396	43.950	-710.43604	8.92896	-572.30176	704.43372	15.79632	-487.75443	-781.17120	-8.32879	646.88397	788.77802	-1.26124	650.03418	-0.16807	644.48645	-965.36688	
4397	43.960	-710.97974	9.16065	-572.12610	703.57556	16.12121	-487.67609	-782.23895	-8.11918	647.05096	787.92157	-1.46165	650.20850	-0.81036	644.98254	-965.10480	
4398	43.970	-711.99335	9.48912	-572.09058	702.65045	16.44690	-487.60333	-783.20569	-8.75999	646.95111	787.32422	-1.72637	650.28174	-0.84726	645.71216	-963.83282	
4399	43.980	-713.01898	10.12483	-571.93890	701.80682	16.75354	-487.43790	-784.13220	-9.18373	647.05298	785.86920	-2.45765	650.17065	-3.68614	646.40149	-963.90240	
4400	43.990	-714.07098	10.30910	-571.83600	700.79059	17.12427	-487.55930	-785.25323	-9.52432	647.05975	785.24036	-2.59431	650.50793	-4.58255	646.82318	-963.46649	
4401	44.000	-714.94678	10.51811	-571.83508	699.74353	17.20554	-487.20605	-786.08069	-10.24422	647.10413	784.06958	-3.01786	650.63104	-5.72958	647.44165	-962.99921	
4402	44.010	-715.81000	10.73687	-571.74603	698.89752	17.76221	-487.17685	-786.83160	-10.39588	647.25928	783.26489	-3.44320	650.59247	-6.65967	648.05981	-962.65350	
4403	44.020	-716.79120	11.16691	-571.56238	698.06158	18.02417	-486.97498	-787.91302	-10.77164	647.39343	782.40302	-3.73338	650.59326	-7.42645	648.66510	-962.00800	
4404	44.030	-717.81598	11.75115	-571.54120	697.02197	18.08414	-486.84927	-788.92328	-11.02338	647.57953	781.23132	-4.17484	650.69012	-8.46975	649.17938	-961.58356	
4405	44.040	-718.52753	12.01821	-571.27289	696.09326	18.53673	-486.84531	-789.86462	-11.38121	647.54675	780.59552	-4.51763	650.76312	-9.39719	649.88147	-961.04456	
4406	44.050	-719.57013	12.31139	-571.06378	695.22375	18.59911	-486.62399	-790.65137	-11.73372	647.65643	779.57654	-4.94534	650.76331	-10.32426	650.52893	-960.56238	
4407	44.060	-720.52502	12.46153	-571.10040	694.07104	19.01411	-486.70718	-791.45569	-12.21884	647.67102	778.67407	-5.33209	650.87805	-11.06257	650.95581	-960.29712	
4408	44.070	-721.24408	12.94271	-571.01227	693.38867	19.27878	-486.62830	-792.49066	-12.76169	647.57239	777.75061	-5.78860	650.98724	-12.12577	651.61224	-959.64270	
4409	44.080	-721.92566	13.40927	-570.92499	692.40582	19.55927	-486.39609	-793.42303	-12.97708	647.87299	776.88568	-6.12988	651.10754	-12.96815	652.20239	-959.25409	
4410	44.090	-723.33405	13.86297	-570.86066	691.56885	20.05300	-486.52786	-794.18250	-13.37699	648.08154	775.93195	-6.59852	651.31335	-13.72057	652.63293	-958.68567	
4411	44.100	-723.87708	14.00518	-570.70367	690.49017	20.31959	-486.50388	-795.15417	-13.68547	648.15991	775.21411	-6.79542	651.32935	-15.06250	653.40216	-958.08038	
4412	44.110	-724.73938	14.16854	-570.63342	689.79565	20.47085	-486.07648	-796.06506	-14.14861	648.18951	774.09027	-7.23043	651.45935	-15.67793	653.86163	-957.81073	
4413	44.120	-725.88269	14.71899	-570.48462	688.98273	20.96162	-486.14828	-796.81689	-14.47695	648.23486	773.36316	-7.39206	651.59967	-16.53704	654.34241	-957.15247	
4414	44.130	-726.64545	15.18246	-570.39624	688.03149	21.36521	-486.00742	-797.74146	-14.73135	648.18359	772.45331	-7.84915	651.56189	-17.36008	654.90942	-956.56879	
4415	44.140	-727.41187	15.57374	-570.27728	687.24023	21.39692	-485.76974	-798.52271	-14.95084	648.36389	771.63635	-8.23115	651.78577	-17.28081	655.40045	-956.00952	
4416	44.150	-728.20294	15.77748	-570.11523	686.58954	21.73788	-485.73413	-799.39404	-15.48371	648.49884	770.85577	-8.62337	651.84314	-18.00382	655.92651	-955.61859	
4417	44.160	-729.14984	15.95641	-570.07318	685.65454	22.03961	-485.60989	-800.17877	-15.97128	648.58722	769.96240	-8.95895	651.86774	-18.71467	656.45197	-955.34003	
4418	44.170	-730.14386	16.43262	-570.03601	684.71942	22.20337	-485.51898	-801.04901	-16.32576	648.70209	769.06628	-9.48641	651.76923	-19.82674	656.97162	-954.98944	
4419	44.180	-730.77661	16.69678	-569.93915	684.03253	22.53480	-485.66321	-801.75092	-16.59439	648.77380	768.44043	-9.63817	651.91016	-21.56094	657.68152	-954.54059	
4420	44.190	-731.63300	17.08109	-569.94250	683.24200	22.89109	-485.41400	-802.57422	-16.76903	648.75525	767.82349	-9.94936	651.96790	-21.29612	658.04657	-954.24286	
4421	44.200	-732.27545	17.43831	-569.69232	682.60406	23.09108	-485.15460	-803.33850	-16.61719	649.02295	766.97858	-10.39671	652.00983	-22.06411	658.36163	-954.00757	
4422	44.210	-732.99060	17.53008	-569.68158	681.76709	23.28688	-485.06558	-804.13776	-17.42505	648.80334	766.17322	-10.66123	652.10944	-23.11091	659.11658	-953.43726	
4423	44.220	-733.87921	17.96074	-569.56305	680.85950	23.57120	-485.13107	-804.88770	-17.85075	648.84784	765.34399	-11.13561	652.21924	-24.66235	659.63196	-953.14899	
4424	44.230	-734.71826	18.37431	-569.52551	680.17859	23.76966	-484.89343	-805.60120	-18.17919	649.01385	764.65771	-11.35976	652.24268	-24.58467	659.92163	-952.59863	
4425	44.240	-735.38428	18.71208	-569.32684	679.67181	24.05241	-484.83817	-806.36023	-18.44874	649.24268	763.66168	-11.84903	652.36902	-25.27773	660.51862	-951.96228	
4426	44.250	-736.00049	18.77613	-569.39771	678.74530	24.46691	-484.81854	-807.02423	-18.86978	649.43207	763.22864	-12.05245	652.43213	-25.76757	661.00891	-951.50037	
4427	44.260	-736.85974	19.12980	-569.20160	677.81384	24.85768	-484.75397	-807.66565	-19.07397	649.45190	762.69220	-12.21791	652.53363	-26.53343	661.48846	-950.79596	
4428	44.270	-737.22614	19.18674	-569.11609	677.48547	24.77960	-484.56866	-808.43311	-19.56783	649.42078	761.78711	-12.59490	652.63226	-27.29016	661.93097	-950.45673	
4429	44.280	-738.10895	19.56818	-569.06470	677.08588	24.96203	-484.35086	-809.17114	-19.42759	649.46252	761.08020	-12.79676	652.77246	-27.89684	662.29700	-950.31152	
4430	44.290	-738.84644	19.92813	-569.11011	676.15363	25.08508	-484.63376	-809.71002	-19.83202	649.33472	760.37256	-13.32522	652.69141	-28.56492	662.77454	-949.78821	
4431	44.300	-739.59698	20.26246	-569.03918	675.26514	25.60101	-484.42349	-810.28320	-20.33272	649.36261	759.93713	-13.46831	652.73212	-29.32599	663.26959	-949.51440	
4432	44.310	-740.04980	20.44430	-568.95441	674.75006	25.57964	-484.36005	-810.89410	-20.44226	649.44250	759.46643	-13.67671	652.77893	-30.76123	663.75842	-949.48352	
4433	44.320	-740.35022	20.68319	-568.77386	674.30670	25.68753	-484.25732	-811.48267	-20.28583	649.61432	758.67639	-14.05795	653.02740	-29.93085	663.97583	-948.92102	
4434	44.330	-741.03381	20.85457	-568.73535	673.68817	25.95640	-484.32394	-812.16083	-21.06679	649.60956	758.30054	-14.28889	653.12146	-30.31550	664.27509	-948.60449	
4435	44.340	-741.64606	21.23038	-568.72430	673.23315	26.17467	-484.13782	-812.60693	-21.30146	649.73004	757.61719	-14.63718	653.04443	-31.64904	664.94946	-948.61481	
4436	44.350	-742.19556	21.63644	-568.69427	672.64661	26.37951	-484.05026	-813.00562	-21.50234	649.89374	757.20313	-14.76658	652.98248	-32.00859	665.17285	-948.31366	
